<svg width="1728" height="468" viewBox="0 0 1728 468" fill="none" xmlns="http://www.w3.org/2000/svg">
<path fill-rule="evenodd" clip-rule="evenodd" d="M0 416L90.9825 312L181.965 156L272.947 0L365.374 156H456.357L547.339 208L638.322 104H729.304L820.287 52L912.713 104L1003.7 156L1094.68 312L1185.66 0L1276.64 312L1367.63 260L1460.05 312L1551.03 0L1642.02 468L1733 156V0H1642.02H1551.03H1460.05H1367.63H1276.64H1185.66H1094.68H1003.7H912.713H820.287H729.304H638.322H547.339H456.357H365.374H272.947H181.965H90.9825H0V416Z" fill="#272727"/>
<path d="M584.328 418V350.8H640.872V418H633.864V355.024L635.688 356.944H589.512L591.336 355.024V418H584.328ZM677.851 418.48C672.987 418.48 668.603 417.392 664.699 415.216C660.859 412.976 657.819 409.936 655.579 406.096C653.339 402.192 652.219 397.744 652.219 392.752C652.219 387.696 653.339 383.248 655.579 379.408C657.819 375.568 660.859 372.56 664.699 370.384C668.539 368.208 672.923 367.12 677.851 367.12C682.843 367.12 687.259 368.208 691.099 370.384C695.003 372.56 698.043 375.568 700.219 379.408C702.459 383.248 703.579 387.696 703.579 392.752C703.579 397.744 702.459 402.192 700.219 406.096C698.043 409.936 695.003 412.976 691.099 415.216C687.195 417.392 682.779 418.48 677.851 418.48ZM677.851 412.432C681.499 412.432 684.731 411.632 687.547 410.032C690.363 408.368 692.571 406.064 694.171 403.12C695.835 400.112 696.667 396.656 696.667 392.752C696.667 388.784 695.835 385.328 694.171 382.384C692.571 379.44 690.363 377.168 687.547 375.568C684.731 373.904 681.531 373.072 677.947 373.072C674.363 373.072 671.163 373.904 668.347 375.568C665.531 377.168 663.291 379.44 661.627 382.384C659.963 385.328 659.131 388.784 659.131 392.752C659.131 396.656 659.963 400.112 661.627 403.12C663.291 406.064 665.531 408.368 668.347 410.032C671.163 411.632 674.331 412.432 677.851 412.432ZM745.218 396.688C742.274 397.968 739.298 398.992 736.29 399.76C733.346 400.464 730.402 400.816 727.458 400.816C721.506 400.816 716.802 399.472 713.346 396.784C709.89 394.032 708.162 389.808 708.162 384.112V367.6H714.882V383.728C714.882 387.568 716.13 390.448 718.626 392.368C721.122 394.288 724.482 395.248 728.706 395.248C731.266 395.248 733.954 394.928 736.77 394.288C739.586 393.584 742.434 392.592 745.314 391.312L745.218 396.688ZM744.642 418V367.6H751.458V418H744.642ZM787.615 418.48C782.367 418.48 777.759 417.392 773.791 415.216C769.823 412.976 766.719 409.936 764.479 406.096C762.239 402.192 761.119 397.744 761.119 392.752C761.119 387.76 762.175 383.344 764.287 379.504C766.463 375.664 769.407 372.656 773.119 370.48C776.895 368.24 781.119 367.12 785.791 367.12C790.527 367.12 794.719 368.208 798.367 370.384C802.079 372.496 804.991 375.504 807.103 379.408C809.215 383.248 810.271 387.696 810.271 392.752C810.271 393.072 810.239 393.424 810.175 393.808C810.175 394.128 810.175 394.48 810.175 394.864H766.303V389.776H806.527L803.839 391.792C803.839 388.144 803.039 384.912 801.439 382.096C799.903 379.216 797.791 376.976 795.103 375.376C792.415 373.776 789.311 372.976 785.791 372.976C782.335 372.976 779.231 373.776 776.479 375.376C773.727 376.976 771.583 379.216 770.047 382.096C768.511 384.976 767.743 388.272 767.743 391.984V393.04C767.743 396.88 768.575 400.272 770.239 403.216C771.967 406.096 774.335 408.368 777.343 410.032C780.415 411.632 783.903 412.432 787.807 412.432C790.879 412.432 793.727 411.888 796.351 410.8C799.039 409.712 801.343 408.048 803.263 405.808L807.103 410.224C804.863 412.912 802.047 414.96 798.655 416.368C795.327 417.776 791.647 418.48 787.615 418.48ZM820.559 418V367.6H827.471L850.319 406.288H847.439L870.671 367.6H877.007V418H870.767V375.376L872.015 375.952L850.319 411.856H847.247L825.359 375.568L826.799 375.28V418H820.559ZM892.466 437.104C890.098 437.104 887.826 436.72 885.65 435.952C883.538 435.184 881.714 434.032 880.178 432.496L883.346 427.408C884.626 428.624 886.002 429.552 887.474 430.192C889.01 430.896 890.706 431.248 892.562 431.248C894.802 431.248 896.722 430.608 898.322 429.328C899.986 428.112 901.554 425.936 903.026 422.8L906.29 415.408L907.058 414.352L927.794 367.6H934.514L909.266 424.048C907.858 427.312 906.29 429.904 904.562 431.824C902.898 433.744 901.074 435.088 899.09 435.856C897.106 436.688 894.898 437.104 892.466 437.104ZM905.906 419.44L882.674 367.6H889.778L910.322 413.872L905.906 419.44ZM960.658 418V367.6H967.57L990.418 406.288H987.538L1010.77 367.6H1017.11V418H1010.87V375.376L1012.11 375.952L990.418 411.856H987.346L965.458 375.568L966.898 375.28V418H960.658ZM1080.85 418V367.6H1087.67V418H1080.85ZM1052.92 385.36C1059.25 385.424 1064.09 386.832 1067.41 389.584C1070.74 392.336 1072.41 396.304 1072.41 401.488C1072.41 406.864 1070.61 410.992 1067.03 413.872C1063.45 416.752 1058.33 418.16 1051.67 418.096L1031.7 418V367.6H1038.52V385.168L1052.92 385.36ZM1051.19 412.912C1055.93 412.976 1059.48 412.048 1061.85 410.128C1064.28 408.144 1065.49 405.264 1065.49 401.488C1065.49 397.712 1064.31 394.96 1061.94 393.232C1059.57 391.44 1055.99 390.512 1051.19 390.448L1038.52 390.256V412.72L1051.19 412.912Z" fill="#030303"/>
</svg>
