<svg width="140" height="57" viewBox="0 0 140 57" fill="none" xmlns="http://www.w3.org/2000/svg">
<path d="M0.419998 15.61C0.651898 15.61 0.84 15.422 0.84 15.19C0.84 14.9581 0.651898 14.77 0.419998 14.77C0.187998 14.77 0 14.9581 0 15.19C0 15.422 0.187998 15.61 0.419998 15.61Z" fill="#E03838"/>
<path d="M9.71981 15.5402C9.95181 15.5402 10.1398 15.3522 10.1398 15.1202C10.1398 14.8882 9.95181 14.7002 9.71981 14.7002C9.48791 14.7002 9.2998 14.8882 9.2998 15.1202C9.2998 15.3522 9.48791 15.5402 9.71981 15.5402Z" fill="#E03838"/>
<path d="M5.0699 18.2802C5.3019 18.2802 5.4899 18.0921 5.4899 17.8602C5.4899 17.6282 5.3019 17.4402 5.0699 17.4402C4.838 17.4402 4.6499 17.6282 4.6499 17.8602C4.6499 18.0921 4.838 18.2802 5.0699 18.2802Z" fill="#E03838"/>
<path d="M0.419998 21.0302C0.651898 21.0302 0.84 20.8421 0.84 20.6102C0.84 20.3782 0.651898 20.1902 0.419998 20.1902C0.187998 20.1902 0 20.3782 0 20.6102C0 20.8421 0.187998 21.0302 0.419998 21.0302Z" fill="#E03838"/>
<path d="M23.6698 13.1602C24.1503 13.1602 24.5398 12.7706 24.5398 12.2902C24.5398 11.8097 24.1503 11.4202 23.6698 11.4202C23.1894 11.4202 22.7998 11.8097 22.7998 12.2902C22.7998 12.7706 23.1894 13.1602 23.6698 13.1602Z" fill="#E03838"/>
<path d="M19.0199 15.9102C19.5004 15.9102 19.8899 15.5206 19.8899 15.0402C19.8899 14.5597 19.5004 14.1702 19.0199 14.1702C18.5395 14.1702 18.1499 14.5597 18.1499 15.0402C18.1499 15.5206 18.5395 15.9102 19.0199 15.9102Z" fill="#E03838"/>
<path d="M14.37 18.6602C14.8505 18.6602 15.24 18.2706 15.24 17.7902C15.24 17.3097 14.8505 16.9202 14.37 16.9202C13.8895 16.9202 13.5 17.3097 13.5 17.7902C13.5 18.2706 13.8895 18.6602 14.37 18.6602Z" fill="#E03838"/>
<path d="M9.7201 21.4102C10.2006 21.4102 10.5901 21.0206 10.5901 20.5402C10.5901 20.0597 10.2006 19.6702 9.7201 19.6702C9.2396 19.6702 8.8501 20.0597 8.8501 20.5402C8.8501 21.0206 9.2396 21.4102 9.7201 21.4102Z" fill="#E03838"/>
<path d="M5.0702 24.1502C5.5507 24.1502 5.9402 23.7606 5.9402 23.2802C5.9402 22.7997 5.5507 22.4102 5.0702 22.4102C4.5897 22.4102 4.2002 22.7997 4.2002 23.2802C4.2002 23.7606 4.5897 24.1502 5.0702 24.1502Z" fill="#E03838"/>
<path d="M0.419998 26.4501C0.651898 26.4501 0.84 26.2621 0.84 26.0301C0.84 25.7981 0.651898 25.6101 0.419998 25.6101C0.187998 25.6101 0 25.7981 0 26.0301C0 26.2621 0.187998 26.4501 0.419998 26.4501Z" fill="#E03838"/>
<path d="M23.6702 19.4502C24.6311 19.4502 25.4102 18.6712 25.4102 17.7102C25.4102 16.7492 24.6311 15.9702 23.6702 15.9702C22.7092 15.9702 21.9302 16.7492 21.9302 17.7102C21.9302 18.6712 22.7092 19.4502 23.6702 19.4502Z" fill="#E03838"/>
<path d="M19.0203 22.2002C19.9812 22.2002 20.7603 21.4212 20.7603 20.4602C20.7603 19.4992 19.9812 18.7202 19.0203 18.7202C18.0593 18.7202 17.2803 19.4992 17.2803 20.4602C17.2803 21.4212 18.0593 22.2002 19.0203 22.2002Z" fill="#E03838"/>
<path d="M14.3699 24.9502C15.3309 24.9502 16.1099 24.1712 16.1099 23.2102C16.1099 22.2492 15.3309 21.4702 14.3699 21.4702C13.409 21.4702 12.6299 22.2492 12.6299 23.2102C12.6299 24.1712 13.409 24.9502 14.3699 24.9502Z" fill="#E03838"/>
<path d="M9.71998 27.6902C10.6809 27.6902 11.46 26.9112 11.46 25.9502C11.46 24.9892 10.6809 24.2102 9.71998 24.2102C8.75898 24.2102 7.97998 24.9892 7.97998 25.9502C7.97998 26.9112 8.75898 27.6902 9.71998 27.6902Z" fill="#E03838"/>
<path d="M5.0702 29.5701C5.5507 29.5701 5.9402 29.1806 5.9402 28.7001C5.9402 28.2196 5.5507 27.8301 5.0702 27.8301C4.5897 27.8301 4.2002 28.2196 4.2002 28.7001C4.2002 29.1806 4.5897 29.5701 5.0702 29.5701Z" fill="#E03838"/>
<path d="M0.419998 31.87C0.651898 31.87 0.84 31.682 0.84 31.45C0.84 31.2181 0.651898 31.03 0.419998 31.03C0.187998 31.03 0 31.2181 0 31.45C0 31.682 0.187998 31.87 0.419998 31.87Z" fill="#E03838"/>
<path d="M23.6702 24.8701C24.6311 24.8701 25.4102 24.0911 25.4102 23.1301C25.4102 22.1692 24.6311 21.3901 23.6702 21.3901C22.7092 21.3901 21.9302 22.1692 21.9302 23.1301C21.9302 24.0911 22.7092 24.8701 23.6702 24.8701Z" fill="#E03838"/>
<path d="M19.0203 27.6201C19.9812 27.6201 20.7603 26.8411 20.7603 25.8801C20.7603 24.9192 19.9812 24.1401 19.0203 24.1401C18.0593 24.1401 17.2803 24.9192 17.2803 25.8801C17.2803 26.8411 18.0593 27.6201 19.0203 27.6201Z" fill="#E03838"/>
<path d="M14.3699 30.3601C15.3309 30.3601 16.1099 29.5811 16.1099 28.6201C16.1099 27.6592 15.3309 26.8801 14.3699 26.8801C13.409 26.8801 12.6299 27.6592 12.6299 28.6201C12.6299 29.5811 13.409 30.3601 14.3699 30.3601Z" fill="#E03838"/>
<path d="M9.71998 33.1101C10.6809 33.1101 11.46 32.3311 11.46 31.3701C11.46 30.4092 10.6809 29.6301 9.71998 29.6301C8.75898 29.6301 7.97998 30.4092 7.97998 31.3701C7.97998 32.3311 8.75898 33.1101 9.71998 33.1101Z" fill="#E03838"/>
<path d="M5.0702 34.99C5.5507 34.99 5.9402 34.6005 5.9402 34.12C5.9402 33.6395 5.5507 33.25 5.0702 33.25C4.5897 33.25 4.2002 33.6395 4.2002 34.12C4.2002 34.6005 4.5897 34.99 5.0702 34.99Z" fill="#E03838"/>
<path d="M0.419998 37.2902C0.651898 37.2902 0.84 37.1022 0.84 36.8702C0.84 36.6382 0.651898 36.4502 0.419998 36.4502C0.187998 36.4502 0 36.6382 0 36.8702C0 37.1022 0.187998 37.2902 0.419998 37.2902Z" fill="#E03838"/>
<path d="M23.6698 29.4202C24.1503 29.4202 24.5398 29.0307 24.5398 28.5502C24.5398 28.0697 24.1503 27.6802 23.6698 27.6802C23.1894 27.6802 22.7998 28.0697 22.7998 28.5502C22.7998 29.0307 23.1894 29.4202 23.6698 29.4202Z" fill="#E03838"/>
<path d="M19.0199 32.1602C19.5004 32.1602 19.8899 31.7706 19.8899 31.2902C19.8899 30.8097 19.5004 30.4202 19.0199 30.4202C18.5395 30.4202 18.1499 30.8097 18.1499 31.2902C18.1499 31.7706 18.5395 32.1602 19.0199 32.1602Z" fill="#E03838"/>
<path d="M14.37 34.9102C14.8505 34.9102 15.24 34.5206 15.24 34.0402C15.24 33.5597 14.8505 33.1702 14.37 33.1702C13.8895 33.1702 13.5 33.5597 13.5 34.0402C13.5 34.5206 13.8895 34.9102 14.37 34.9102Z" fill="#E03838"/>
<path d="M9.7201 37.6602C10.2006 37.6602 10.5901 37.2706 10.5901 36.7902C10.5901 36.3097 10.2006 35.9202 9.7201 35.9202C9.2396 35.9202 8.8501 36.3097 8.8501 36.7902C8.8501 37.2706 9.2396 37.6602 9.7201 37.6602Z" fill="#E03838"/>
<path d="M5.0699 39.9601C5.3019 39.9601 5.4899 39.7721 5.4899 39.5401C5.4899 39.3082 5.3019 39.1201 5.0699 39.1201C4.838 39.1201 4.6499 39.3082 4.6499 39.5401C4.6499 39.7721 4.838 39.9601 5.0699 39.9601Z" fill="#E03838"/>
<path d="M0.419998 42.7101C0.651898 42.7101 0.84 42.5221 0.84 42.2901C0.84 42.0582 0.651898 41.8701 0.419998 41.8701C0.187998 41.8701 0 42.0582 0 42.2901C0 42.5221 0.187998 42.7101 0.419998 42.7101Z" fill="#E03838"/>
<path d="M23.67 34.38C23.9019 34.38 24.09 34.192 24.09 33.96C24.09 33.7281 23.9019 33.54 23.67 33.54C23.438 33.54 23.25 33.7281 23.25 33.96C23.25 34.192 23.438 34.38 23.67 34.38Z" fill="#E03838"/>
<path d="M19.0201 37.13C19.2521 37.13 19.4401 36.942 19.4401 36.71C19.4401 36.4781 19.2521 36.29 19.0201 36.29C18.7882 36.29 18.6001 36.4781 18.6001 36.71C18.6001 36.942 18.7882 37.13 19.0201 37.13Z" fill="#E03838"/>
<path d="M14.3702 39.88C14.6022 39.88 14.7902 39.692 14.7902 39.46C14.7902 39.2281 14.6022 39.04 14.3702 39.04C14.1382 39.04 13.9502 39.2281 13.9502 39.46C13.9502 39.692 14.1382 39.88 14.3702 39.88Z" fill="#E03838"/>
<path d="M9.71981 42.63C9.95181 42.63 10.1398 42.442 10.1398 42.21C10.1398 41.9781 9.95181 41.79 9.71981 41.79C9.48791 41.79 9.2998 41.9781 9.2998 42.21C9.2998 42.442 9.48791 42.63 9.71981 42.63Z" fill="#E03838"/>
<path d="M5.0699 45.38C5.3019 45.38 5.4899 45.192 5.4899 44.96C5.4899 44.7281 5.3019 44.54 5.0699 44.54C4.838 44.54 4.6499 44.7281 4.6499 44.96C4.6499 45.192 4.838 45.38 5.0699 45.38Z" fill="#E03838"/>
<path d="M23.67 39.8002C23.9019 39.8002 24.09 39.6122 24.09 39.3802C24.09 39.1482 23.9019 38.9602 23.67 38.9602C23.438 38.9602 23.25 39.1482 23.25 39.3802C23.25 39.6122 23.438 39.8002 23.67 39.8002Z" fill="#E03838"/>
<path d="M19.0201 42.5502C19.2521 42.5502 19.4401 42.3622 19.4401 42.1302C19.4401 41.8982 19.2521 41.7102 19.0201 41.7102C18.7882 41.7102 18.6001 41.8982 18.6001 42.1302C18.6001 42.3622 18.7882 42.5502 19.0201 42.5502Z" fill="#E03838"/>
<path d="M14.3702 45.3002C14.6022 45.3002 14.7902 45.1122 14.7902 44.8802C14.7902 44.6482 14.6022 44.4602 14.3702 44.4602C14.1382 44.4602 13.9502 44.6482 13.9502 44.8802C13.9502 45.1122 14.1382 45.3002 14.3702 45.3002Z" fill="#E03838"/>
<path d="M9.71981 48.0502C9.95181 48.0502 10.1398 47.8622 10.1398 47.6302C10.1398 47.3982 9.95181 47.2102 9.71981 47.2102C9.48791 47.2102 9.2998 47.3982 9.2998 47.6302C9.2998 47.8622 9.48791 48.0502 9.71981 48.0502Z" fill="#E03838"/>
<path d="M23.67 45.2201C23.9019 45.2201 24.09 45.0321 24.09 44.8001C24.09 44.5682 23.9019 44.3801 23.67 44.3801C23.438 44.3801 23.25 44.5682 23.25 44.8001C23.25 45.0321 23.438 45.2201 23.67 45.2201Z" fill="#E03838"/>
<path d="M19.0201 47.9701C19.2521 47.9701 19.4401 47.7821 19.4401 47.5501C19.4401 47.3182 19.2521 47.1301 19.0201 47.1301C18.7882 47.1301 18.6001 47.3182 18.6001 47.5501C18.6001 47.7821 18.7882 47.9701 19.0201 47.9701Z" fill="#E03838"/>
<path d="M14.3702 50.7201C14.6022 50.7201 14.7902 50.5321 14.7902 50.3001C14.7902 50.0682 14.6022 49.8801 14.3702 49.8801C14.1382 49.8801 13.9502 50.0682 13.9502 50.3001C13.9502 50.5321 14.1382 50.7201 14.3702 50.7201Z" fill="#E03838"/>
<path d="M23.67 50.64C23.9019 50.64 24.09 50.452 24.09 50.22C24.09 49.9881 23.9019 49.8 23.67 49.8C23.438 49.8 23.25 49.9881 23.25 50.22C23.25 50.452 23.438 50.64 23.67 50.64Z" fill="#E03838"/>
<path d="M19.0201 53.39C19.2521 53.39 19.4401 53.202 19.4401 52.97C19.4401 52.7381 19.2521 52.55 19.0201 52.55C18.7882 52.55 18.6001 52.7381 18.6001 52.97C18.6001 53.202 18.7882 53.39 19.0201 53.39Z" fill="#E03838"/>
<path d="M23.67 56.0602C23.9019 56.0602 24.09 55.8722 24.09 55.6402C24.09 55.4083 23.9019 55.2202 23.67 55.2202C23.438 55.2202 23.25 55.4083 23.25 55.6402C23.25 55.8722 23.438 56.0602 23.67 56.0602Z" fill="#E03838"/>
<path d="M46.86 15.61C47.0919 15.61 47.28 15.422 47.28 15.19C47.28 14.9581 47.0919 14.77 46.86 14.77C46.628 14.77 46.4399 14.9581 46.4399 15.19C46.4399 15.422 46.628 15.61 46.86 15.61Z" fill="#E03838"/>
<path d="M37.5499 15.5402C37.7819 15.5402 37.9699 15.3522 37.9699 15.1202C37.9699 14.8882 37.7819 14.7002 37.5499 14.7002C37.318 14.7002 37.1299 14.8882 37.1299 15.1202C37.1299 15.3522 37.318 15.5402 37.5499 15.5402Z" fill="#E03838"/>
<path d="M42.2101 18.2802C42.442 18.2802 42.63 18.0921 42.63 17.8602C42.63 17.6282 42.442 17.4402 42.2101 17.4402C41.9781 17.4402 41.79 17.6282 41.79 17.8602C41.79 18.0921 41.9781 18.2802 42.2101 18.2802Z" fill="#E03838"/>
<path d="M46.86 21.0302C47.0919 21.0302 47.28 20.8421 47.28 20.6102C47.28 20.3782 47.0919 20.1902 46.86 20.1902C46.628 20.1902 46.4399 20.3782 46.4399 20.6102C46.4399 20.8421 46.628 21.0302 46.86 21.0302Z" fill="#E03838"/>
<path d="M23.6 13.1602C24.0805 13.1602 24.47 12.7706 24.47 12.2902C24.47 11.8097 24.0805 11.4202 23.6 11.4202C23.1195 11.4202 22.73 11.8097 22.73 12.2902C22.73 12.7706 23.1195 13.1602 23.6 13.1602Z" fill="#E03838"/>
<path d="M28.25 15.9102C28.7304 15.9102 29.1199 15.5206 29.1199 15.0402C29.1199 14.5597 28.7304 14.1702 28.25 14.1702C27.7695 14.1702 27.3799 14.5597 27.3799 15.0402C27.3799 15.5206 27.7695 15.9102 28.25 15.9102Z" fill="#E03838"/>
<path d="M32.9003 18.6602C33.3808 18.6602 33.7703 18.2706 33.7703 17.7902C33.7703 17.3097 33.3808 16.9202 32.9003 16.9202C32.4198 16.9202 32.0303 17.3097 32.0303 17.7902C32.0303 18.2706 32.4198 18.6602 32.9003 18.6602Z" fill="#E03838"/>
<path d="M37.5502 21.4102C38.0307 21.4102 38.4202 21.0206 38.4202 20.5402C38.4202 20.0597 38.0307 19.6702 37.5502 19.6702C37.0697 19.6702 36.6802 20.0597 36.6802 20.5402C36.6802 21.0206 37.0697 21.4102 37.5502 21.4102Z" fill="#E03838"/>
<path d="M42.2103 24.1502C42.6908 24.1502 43.0803 23.7606 43.0803 23.2802C43.0803 22.7997 42.6908 22.4102 42.2103 22.4102C41.7298 22.4102 41.3403 22.7997 41.3403 23.2802C41.3403 23.7606 41.7298 24.1502 42.2103 24.1502Z" fill="#E03838"/>
<path d="M46.86 26.4501C47.0919 26.4501 47.28 26.2621 47.28 26.0301C47.28 25.7981 47.0919 25.6101 46.86 25.6101C46.628 25.6101 46.4399 25.7981 46.4399 26.0301C46.4399 26.2621 46.628 26.4501 46.86 26.4501Z" fill="#E03838"/>
<path d="M23.5999 19.4502C24.5609 19.4502 25.3399 18.6712 25.3399 17.7102C25.3399 16.7492 24.5609 15.9702 23.5999 15.9702C22.6389 15.9702 21.8599 16.7492 21.8599 17.7102C21.8599 18.6712 22.6389 19.4502 23.5999 19.4502Z" fill="#E03838"/>
<path d="M28.2503 22.2002C29.2113 22.2002 29.9903 21.4212 29.9903 20.4602C29.9903 19.4992 29.2113 18.7202 28.2503 18.7202C27.2893 18.7202 26.5103 19.4992 26.5103 20.4602C26.5103 21.4212 27.2893 22.2002 28.2503 22.2002Z" fill="#E03838"/>
<path d="M32.9002 24.9502C33.8612 24.9502 34.6402 24.1712 34.6402 23.2102C34.6402 22.2492 33.8612 21.4702 32.9002 21.4702C31.9392 21.4702 31.1602 22.2492 31.1602 23.2102C31.1602 24.1712 31.9392 24.9502 32.9002 24.9502Z" fill="#E03838"/>
<path d="M37.55 27.6902C38.511 27.6902 39.29 26.9112 39.29 25.9502C39.29 24.9892 38.511 24.2102 37.55 24.2102C36.5891 24.2102 35.8101 24.9892 35.8101 25.9502C35.8101 26.9112 36.5891 27.6902 37.55 27.6902Z" fill="#E03838"/>
<path d="M42.2103 29.5701C42.6908 29.5701 43.0803 29.1806 43.0803 28.7001C43.0803 28.2196 42.6908 27.8301 42.2103 27.8301C41.7298 27.8301 41.3403 28.2196 41.3403 28.7001C41.3403 29.1806 41.7298 29.5701 42.2103 29.5701Z" fill="#E03838"/>
<path d="M46.86 31.87C47.0919 31.87 47.28 31.682 47.28 31.45C47.28 31.2181 47.0919 31.03 46.86 31.03C46.628 31.03 46.4399 31.2181 46.4399 31.45C46.4399 31.682 46.628 31.87 46.86 31.87Z" fill="#E03838"/>
<path d="M23.5999 24.8701C24.5609 24.8701 25.3399 24.0911 25.3399 23.1301C25.3399 22.1692 24.5609 21.3901 23.5999 21.3901C22.6389 21.3901 21.8599 22.1692 21.8599 23.1301C21.8599 24.0911 22.6389 24.8701 23.5999 24.8701Z" fill="#E03838"/>
<path d="M28.2503 27.6201C29.2113 27.6201 29.9903 26.8411 29.9903 25.8801C29.9903 24.9192 29.2113 24.1401 28.2503 24.1401C27.2893 24.1401 26.5103 24.9192 26.5103 25.8801C26.5103 26.8411 27.2893 27.6201 28.2503 27.6201Z" fill="#E03838"/>
<path d="M32.9002 30.3601C33.8612 30.3601 34.6402 29.5811 34.6402 28.6201C34.6402 27.6592 33.8612 26.8801 32.9002 26.8801C31.9392 26.8801 31.1602 27.6592 31.1602 28.6201C31.1602 29.5811 31.9392 30.3601 32.9002 30.3601Z" fill="#E03838"/>
<path d="M37.55 33.1101C38.511 33.1101 39.29 32.3311 39.29 31.3701C39.29 30.4092 38.511 29.6301 37.55 29.6301C36.5891 29.6301 35.8101 30.4092 35.8101 31.3701C35.8101 32.3311 36.5891 33.1101 37.55 33.1101Z" fill="#E03838"/>
<path d="M42.2103 34.99C42.6908 34.99 43.0803 34.6005 43.0803 34.12C43.0803 33.6395 42.6908 33.25 42.2103 33.25C41.7298 33.25 41.3403 33.6395 41.3403 34.12C41.3403 34.6005 41.7298 34.99 42.2103 34.99Z" fill="#E03838"/>
<path d="M46.86 37.2902C47.0919 37.2902 47.28 37.1022 47.28 36.8702C47.28 36.6382 47.0919 36.4502 46.86 36.4502C46.628 36.4502 46.4399 36.6382 46.4399 36.8702C46.4399 37.1022 46.628 37.2902 46.86 37.2902Z" fill="#E03838"/>
<path d="M23.6 29.4202C24.0805 29.4202 24.47 29.0307 24.47 28.5502C24.47 28.0697 24.0805 27.6802 23.6 27.6802C23.1195 27.6802 22.73 28.0697 22.73 28.5502C22.73 29.0307 23.1195 29.4202 23.6 29.4202Z" fill="#E03838"/>
<path d="M28.25 32.1602C28.7304 32.1602 29.1199 31.7706 29.1199 31.2902C29.1199 30.8097 28.7304 30.4202 28.25 30.4202C27.7695 30.4202 27.3799 30.8097 27.3799 31.2902C27.3799 31.7706 27.7695 32.1602 28.25 32.1602Z" fill="#E03838"/>
<path d="M32.9003 34.9102C33.3808 34.9102 33.7703 34.5206 33.7703 34.0402C33.7703 33.5597 33.3808 33.1702 32.9003 33.1702C32.4198 33.1702 32.0303 33.5597 32.0303 34.0402C32.0303 34.5206 32.4198 34.9102 32.9003 34.9102Z" fill="#E03838"/>
<path d="M37.5502 37.6602C38.0307 37.6602 38.4202 37.2706 38.4202 36.7902C38.4202 36.3097 38.0307 35.9202 37.5502 35.9202C37.0697 35.9202 36.6802 36.3097 36.6802 36.7902C36.6802 37.2706 37.0697 37.6602 37.5502 37.6602Z" fill="#E03838"/>
<path d="M42.2101 39.9601C42.442 39.9601 42.63 39.7721 42.63 39.5401C42.63 39.3082 42.442 39.1201 42.2101 39.1201C41.9781 39.1201 41.79 39.3082 41.79 39.5401C41.79 39.7721 41.9781 39.9601 42.2101 39.9601Z" fill="#E03838"/>
<path d="M46.86 42.7101C47.0919 42.7101 47.28 42.5221 47.28 42.2901C47.28 42.0582 47.0919 41.8701 46.86 41.8701C46.628 41.8701 46.4399 42.0582 46.4399 42.2901C46.4399 42.5221 46.628 42.7101 46.86 42.7101Z" fill="#E03838"/>
<path d="M23.6002 34.38C23.8321 34.38 24.0202 34.192 24.0202 33.96C24.0202 33.7281 23.8321 33.54 23.6002 33.54C23.3682 33.54 23.1802 33.7281 23.1802 33.96C23.1802 34.192 23.3682 34.38 23.6002 34.38Z" fill="#E03838"/>
<path d="M28.2501 37.13C28.4821 37.13 28.6701 36.942 28.6701 36.71C28.6701 36.4781 28.4821 36.29 28.2501 36.29C28.0181 36.29 27.8301 36.4781 27.8301 36.71C27.8301 36.942 28.0181 37.13 28.2501 37.13Z" fill="#E03838"/>
<path d="M32.9 39.88C33.132 39.88 33.32 39.692 33.32 39.46C33.32 39.2281 33.132 39.04 32.9 39.04C32.668 39.04 32.48 39.2281 32.48 39.46C32.48 39.692 32.668 39.88 32.9 39.88Z" fill="#E03838"/>
<path d="M37.5499 42.63C37.7819 42.63 37.9699 42.442 37.9699 42.21C37.9699 41.9781 37.7819 41.79 37.5499 41.79C37.318 41.79 37.1299 41.9781 37.1299 42.21C37.1299 42.442 37.318 42.63 37.5499 42.63Z" fill="#E03838"/>
<path d="M42.2101 45.38C42.442 45.38 42.63 45.192 42.63 44.96C42.63 44.7281 42.442 44.54 42.2101 44.54C41.9781 44.54 41.79 44.7281 41.79 44.96C41.79 45.192 41.9781 45.38 42.2101 45.38Z" fill="#E03838"/>
<path d="M23.6002 39.8002C23.8321 39.8002 24.0202 39.6122 24.0202 39.3802C24.0202 39.1482 23.8321 38.9602 23.6002 38.9602C23.3682 38.9602 23.1802 39.1482 23.1802 39.3802C23.1802 39.6122 23.3682 39.8002 23.6002 39.8002Z" fill="#E03838"/>
<path d="M28.2501 42.5502C28.4821 42.5502 28.6701 42.3622 28.6701 42.1302C28.6701 41.8982 28.4821 41.7102 28.2501 41.7102C28.0181 41.7102 27.8301 41.8982 27.8301 42.1302C27.8301 42.3622 28.0181 42.5502 28.2501 42.5502Z" fill="#E03838"/>
<path d="M32.9 45.3002C33.132 45.3002 33.32 45.1122 33.32 44.8802C33.32 44.6482 33.132 44.4602 32.9 44.4602C32.668 44.4602 32.48 44.6482 32.48 44.8802C32.48 45.1122 32.668 45.3002 32.9 45.3002Z" fill="#E03838"/>
<path d="M37.5499 48.0502C37.7819 48.0502 37.9699 47.8622 37.9699 47.6302C37.9699 47.3982 37.7819 47.2102 37.5499 47.2102C37.318 47.2102 37.1299 47.3982 37.1299 47.6302C37.1299 47.8622 37.318 48.0502 37.5499 48.0502Z" fill="#E03838"/>
<path d="M23.6002 45.2201C23.8321 45.2201 24.0202 45.0321 24.0202 44.8001C24.0202 44.5682 23.8321 44.3801 23.6002 44.3801C23.3682 44.3801 23.1802 44.5682 23.1802 44.8001C23.1802 45.0321 23.3682 45.2201 23.6002 45.2201Z" fill="#E03838"/>
<path d="M28.2501 47.9701C28.4821 47.9701 28.6701 47.7821 28.6701 47.5501C28.6701 47.3182 28.4821 47.1301 28.2501 47.1301C28.0181 47.1301 27.8301 47.3182 27.8301 47.5501C27.8301 47.7821 28.0181 47.9701 28.2501 47.9701Z" fill="#E03838"/>
<path d="M32.9 50.7201C33.132 50.7201 33.32 50.5321 33.32 50.3001C33.32 50.0682 33.132 49.8801 32.9 49.8801C32.668 49.8801 32.48 50.0682 32.48 50.3001C32.48 50.5321 32.668 50.7201 32.9 50.7201Z" fill="#E03838"/>
<path d="M23.6002 50.64C23.8321 50.64 24.0202 50.452 24.0202 50.22C24.0202 49.9881 23.8321 49.8 23.6002 49.8C23.3682 49.8 23.1802 49.9881 23.1802 50.22C23.1802 50.452 23.3682 50.64 23.6002 50.64Z" fill="#E03838"/>
<path d="M28.2501 53.39C28.4821 53.39 28.6701 53.202 28.6701 52.97C28.6701 52.7381 28.4821 52.55 28.2501 52.55C28.0181 52.55 27.8301 52.7381 27.8301 52.97C27.8301 53.202 28.0181 53.39 28.2501 53.39Z" fill="#E03838"/>
<path d="M23.6002 56.0602C23.8321 56.0602 24.0202 55.8722 24.0202 55.6402C24.0202 55.4083 23.8321 55.2202 23.6002 55.2202C23.3682 55.2202 23.1802 55.4083 23.1802 55.6402C23.1802 55.8722 23.3682 56.0602 23.6002 56.0602Z" fill="#E03838"/>
<path d="M23.1202 0.84C23.3521 0.84 23.5402 0.651998 23.5402 0.419998C23.5402 0.188098 23.3521 0 23.1202 0C22.8882 0 22.7002 0.188098 22.7002 0.419998C22.7002 0.651998 22.8882 0.84 23.1202 0.84Z" fill="#E03838"/>
<path d="M18.4699 3.59C18.7018 3.59 18.8898 3.402 18.8898 3.17C18.8898 2.9381 18.7018 2.75 18.4699 2.75C18.2379 2.75 18.0498 2.9381 18.0498 3.17C18.0498 3.402 18.2379 3.59 18.4699 3.59Z" fill="#E03838"/>
<path d="M13.8199 6.34C14.0519 6.34 14.2399 6.152 14.2399 5.92C14.2399 5.6881 14.0519 5.5 13.8199 5.5C13.588 5.5 13.3999 5.6881 13.3999 5.92C13.3999 6.152 13.588 6.34 13.8199 6.34Z" fill="#E03838"/>
<path d="M9.17 9.09C9.4019 9.09 9.59 8.902 9.59 8.67C9.59 8.4381 9.4019 8.25 9.17 8.25C8.938 8.25 8.75 8.4381 8.75 8.67C8.75 8.902 8.938 9.09 9.17 9.09Z" fill="#E03838"/>
<path d="M4.5201 11.84C4.752 11.84 4.9401 11.652 4.9401 11.42C4.9401 11.1881 4.752 11 4.5201 11C4.2881 11 4.1001 11.1881 4.1001 11.42C4.1001 11.652 4.2881 11.84 4.5201 11.84Z" fill="#E03838"/>
<path d="M23.1202 6.2602C23.3521 6.2602 23.5402 6.07209 23.5402 5.84019C23.5402 5.60819 23.3521 5.4202 23.1202 5.4202C22.8882 5.4202 22.7002 5.60819 22.7002 5.84019C22.7002 6.07209 22.8882 6.2602 23.1202 6.2602Z" fill="#E03838"/>
<path d="M18.4699 9.0102C18.7018 9.0102 18.8898 8.82209 18.8898 8.59019C18.8898 8.35819 18.7018 8.1702 18.4699 8.1702C18.2379 8.1702 18.0498 8.35819 18.0498 8.59019C18.0498 8.82209 18.2379 9.0102 18.4699 9.0102Z" fill="#E03838"/>
<path d="M13.8199 11.7602C14.0519 11.7602 14.2399 11.5721 14.2399 11.3402C14.2399 11.1082 14.0519 10.9202 13.8199 10.9202C13.588 10.9202 13.3999 11.1082 13.3999 11.3402C13.3999 11.5721 13.588 11.7602 13.8199 11.7602Z" fill="#E03838"/>
<path d="M23.0499 0.84C23.2819 0.84 23.4699 0.651998 23.4699 0.419998C23.4699 0.188098 23.2819 0 23.0499 0C22.818 0 22.6299 0.188098 22.6299 0.419998C22.6299 0.651998 22.818 0.84 23.0499 0.84Z" fill="#E03838"/>
<path d="M27.6998 3.59C27.9318 3.59 28.1198 3.402 28.1198 3.17C28.1198 2.9381 27.9318 2.75 27.6998 2.75C27.4679 2.75 27.2798 2.9381 27.2798 3.17C27.2798 3.402 27.4679 3.59 27.6998 3.59Z" fill="#E03838"/>
<path d="M32.3502 6.34C32.5821 6.34 32.7702 6.152 32.7702 5.92C32.7702 5.6881 32.5821 5.5 32.3502 5.5C32.1182 5.5 31.9302 5.6881 31.9302 5.92C31.9302 6.152 32.1182 6.34 32.3502 6.34Z" fill="#E03838"/>
<path d="M37.0001 9.09C37.2321 9.09 37.4201 8.902 37.4201 8.67C37.4201 8.4381 37.2321 8.25 37.0001 8.25C36.7681 8.25 36.5801 8.4381 36.5801 8.67C36.5801 8.902 36.7681 9.09 37.0001 9.09Z" fill="#E03838"/>
<path d="M41.6602 11.84C41.8922 11.84 42.0802 11.652 42.0802 11.42C42.0802 11.1881 41.8922 11 41.6602 11C41.4282 11 41.2402 11.1881 41.2402 11.42C41.2402 11.652 41.4282 11.84 41.6602 11.84Z" fill="#E03838"/>
<path d="M23.0499 6.2602C23.2819 6.2602 23.4699 6.07209 23.4699 5.84019C23.4699 5.60819 23.2819 5.4202 23.0499 5.4202C22.818 5.4202 22.6299 5.60819 22.6299 5.84019C22.6299 6.07209 22.818 6.2602 23.0499 6.2602Z" fill="#E03838"/>
<path d="M27.6998 9.0102C27.9318 9.0102 28.1198 8.82209 28.1198 8.59019C28.1198 8.35819 27.9318 8.1702 27.6998 8.1702C27.4679 8.1702 27.2798 8.35819 27.2798 8.59019C27.2798 8.82209 27.4679 9.0102 27.6998 9.0102Z" fill="#E03838"/>
<path d="M32.3502 11.7602C32.5821 11.7602 32.7702 11.5721 32.7702 11.3402C32.7702 11.1082 32.5821 10.9202 32.3502 10.9202C32.1182 10.9202 31.9302 11.1082 31.9302 11.3402C31.9302 11.5721 32.1182 11.7602 32.3502 11.7602Z" fill="#E03838"/>
<path d="M61.2998 24.1973H62.5713L66.5908 34H65.627L64.6562 31.6484H59.2148L58.2441 34H57.2803L61.2998 24.1973ZM59.5635 30.8076H64.3076L61.9561 25.0107H61.915L59.5635 30.8076ZM67.7734 27.1367H68.6416V30.8076C68.6416 31.6735 68.8649 32.3092 69.3115 32.7148C69.7581 33.125 70.3415 33.3301 71.0615 33.3301C71.8454 33.3301 72.4469 33.0931 72.8662 32.6191C73.2809 32.1497 73.4883 31.5368 73.4883 30.7803V27.1367H74.3564V34H73.4883V32.9199H73.4268C73.3766 33.0339 73.265 33.1729 73.0918 33.3369C72.9596 33.4691 72.7979 33.5944 72.6064 33.7129C72.415 33.8314 72.1576 33.9316 71.834 34.0137C71.515 34.0957 71.1846 34.1367 70.8428 34.1367C69.9587 34.1367 69.2249 33.8724 68.6416 33.3438C68.0628 32.8197 67.7734 32.0312 67.7734 30.9785V27.1367ZM77.0771 31.5527V27.9502H75.8877V27.1367H77.0771V25.5986H77.9453V27.1367H80.5771V27.9502H77.9453V31.4502C77.9453 32.6989 78.474 33.3255 79.5312 33.3301C79.7682 33.3301 79.9984 33.305 80.2217 33.2549C80.445 33.2002 80.6113 33.141 80.7207 33.0771L80.8574 32.9951V33.8154C80.5202 34.0296 80.0531 34.1367 79.4561 34.1367C78.7406 34.1367 78.1663 33.9225 77.7334 33.4941C77.2959 33.0658 77.0771 32.4186 77.0771 31.5527ZM82.9424 33.1455C82.2497 32.4801 81.9033 31.6211 81.9033 30.5684C81.9033 29.5156 82.2497 28.6566 82.9424 27.9912C83.6305 27.3304 84.5078 27 85.5742 27C86.6406 27 87.5179 27.3304 88.2061 27.9912C88.8942 28.652 89.2383 29.5111 89.2383 30.5684C89.2383 31.6257 88.8942 32.4847 88.2061 33.1455C87.5179 33.8063 86.6406 34.1367 85.5742 34.1367C84.5078 34.1367 83.6305 33.8063 82.9424 33.1455ZM85.5742 33.3027C86.3991 33.3027 87.0667 33.0407 87.5771 32.5166C88.0876 31.9925 88.3428 31.3431 88.3428 30.5684C88.3428 29.7936 88.0876 29.1442 87.5771 28.6201C87.0667 28.1006 86.3991 27.8408 85.5742 27.8408C84.7539 27.8408 84.0863 28.1006 83.5713 28.6201C83.0563 29.1488 82.7988 29.7982 82.7988 30.5684C82.7988 31.3385 83.0563 31.988 83.5713 32.5166C84.0817 33.0407 84.7493 33.3027 85.5742 33.3027ZM100.374 25.25H100.333L97.0176 31.2588H95.835L92.5195 25.25H92.4785V34H91.5557V24.1973H92.998L96.4092 30.4316H96.4297H96.4434L99.8545 24.1973H101.297V34H100.374V25.25ZM103.546 32.127C103.546 31.4616 103.847 30.9535 104.448 30.6025C105.045 30.2562 105.799 30.083 106.711 30.083C107.189 30.083 107.647 30.1423 108.085 30.2607C108.518 30.3838 108.826 30.5 109.008 30.6094L109.302 30.7939V29.5361C109.302 28.9756 109.09 28.5472 108.666 28.251C108.238 27.9593 107.707 27.8135 107.073 27.8135C106.453 27.8135 105.916 27.9411 105.46 28.1963C105.004 28.4469 104.776 28.7614 104.776 29.1396H103.908C103.931 28.5745 104.211 28.0778 104.749 27.6494C105.291 27.2165 106.057 27 107.046 27C107.939 27 108.682 27.2142 109.274 27.6426C109.871 28.0755 110.17 28.7067 110.17 29.5361V32.4346C110.17 32.7627 110.22 32.9951 110.32 33.1318C110.425 33.264 110.598 33.3301 110.84 33.3301C110.995 33.3301 111.12 33.3118 111.216 33.2754L111.257 33.2412V34C111.129 34.0638 110.942 34.0957 110.696 34.0957C110.263 34.0957 109.953 33.9977 109.767 33.8018C109.575 33.6149 109.461 33.4668 109.425 33.3574L109.411 33.2754H109.37C109.338 33.3301 109.201 33.4281 108.96 33.5693C108.791 33.6742 108.618 33.763 108.44 33.8359C107.998 34.0365 107.44 34.1367 106.766 34.1367C105.822 34.1367 105.05 33.9727 104.448 33.6445C103.847 33.3164 103.546 32.8105 103.546 32.127ZM104.441 32.127C104.441 32.929 105.253 33.3301 106.875 33.3301C107.354 33.3301 107.798 33.2594 108.208 33.1182C108.614 32.9769 108.882 32.8607 109.015 32.7695C109.138 32.6784 109.233 32.6032 109.302 32.5439V31.5801C109.27 31.5391 109.181 31.473 109.035 31.3818C108.871 31.2861 108.593 31.1813 108.201 31.0674C107.791 30.9489 107.349 30.8896 106.875 30.8896C105.918 30.8896 105.228 31.056 104.804 31.3887C104.562 31.5801 104.441 31.8262 104.441 32.127ZM116.213 27C116.468 27 116.721 27.0273 116.972 27.082L117.067 27.123V28.0391C116.817 27.9479 116.495 27.9001 116.104 27.8955C115.311 27.8955 114.695 28.1667 114.258 28.709C113.816 29.2467 113.595 29.9098 113.595 30.6982V34H112.727V27.1367H113.595V28.5244H113.649C113.722 28.3695 113.836 28.1917 113.991 27.9912C114.128 27.8135 114.283 27.6585 114.456 27.5264C114.616 27.4033 114.862 27.2826 115.194 27.1641C115.509 27.0547 115.848 27 116.213 27ZM124.895 34H123.732L119.474 30.5V34H118.605V24.1973H119.474V30.4453L123.452 27.1367H124.614L120.636 30.4727L124.895 34ZM132.852 30.5684L132.811 31.1016H126.453C126.453 31.3112 126.567 31.6074 126.795 31.9902C126.927 32.2135 127.087 32.4186 127.273 32.6055C127.474 32.806 127.747 32.9723 128.094 33.1045C128.44 33.2367 128.814 33.3027 129.215 33.3027C129.507 33.3027 129.787 33.2686 130.056 33.2002C130.325 33.1318 130.546 33.043 130.719 32.9336C131.056 32.724 131.277 32.5371 131.382 32.373L131.471 32.2637H132.517C132.489 32.332 132.457 32.3981 132.421 32.4619C132.366 32.5622 132.25 32.7148 132.072 32.9199C131.881 33.1387 131.676 33.3278 131.457 33.4873C131.225 33.6559 130.91 33.804 130.514 33.9316C130.113 34.0684 129.68 34.1367 129.215 34.1367C128.13 34.1367 127.244 33.8063 126.556 33.1455C125.863 32.4801 125.517 31.6211 125.517 30.5684C125.517 29.5156 125.863 28.6566 126.556 27.9912C127.244 27.3304 128.121 27 129.188 27C130.254 27 131.131 27.3304 131.819 27.9912C132.507 28.652 132.852 29.5111 132.852 30.5684ZM126.426 30.2881H131.942C131.942 29.7321 131.701 29.1852 131.218 28.6475C130.735 28.1097 130.058 27.8408 129.188 27.8408C128.317 27.8408 127.64 28.1097 127.157 28.6475C126.67 29.1898 126.426 29.7367 126.426 30.2881ZM135.306 31.5527V27.9502H134.116V27.1367H135.306V25.5986H136.174V27.1367H138.806V27.9502H136.174V31.4502C136.174 32.6989 136.702 33.3255 137.76 33.3301C137.997 33.3301 138.227 33.305 138.45 33.2549C138.674 33.2002 138.84 33.141 138.949 33.0771L139.086 32.9951V33.8154C138.749 34.0296 138.282 34.1367 137.685 34.1367C136.969 34.1367 136.395 33.9225 135.962 33.4941C135.524 33.0658 135.306 32.4186 135.306 31.5527Z" fill="#FDFDFD"/>
</svg>
