<svg width="52" height="52" viewBox="0 0 52 52" fill="none" xmlns="http://www.w3.org/2000/svg">
<g clip-path="url(#clip0_5_2)">
<path d="M27.2148 -0.210519C39.5408 -0.0942721 49.4409 9.99433 49.3247 22.3204C49.2084 34.6464 39.1198 44.5465 26.7938 44.4302C14.4677 44.314 4.56766 34.2254 4.6839 21.8994C4.80015 9.57332 14.8888 -0.326766 27.2148 -0.210519ZM16.3294 16.5133C16.3122 16.7473 16.3099 16.9914 16.3077 17.2306C16.2387 24.5445 21.7294 33.022 31.908 33.118C35.0468 33.1476 37.9651 32.2633 40.4311 30.717C39.9823 30.7626 39.5536 30.7785 39.0952 30.7741C36.5045 30.7497 34.1312 29.8504 32.247 28.3478C34.6788 28.3209 36.7366 26.7458 37.4547 24.5602C36.6016 24.6768 35.8343 24.6695 34.9596 24.4371C36.2139 24.1945 37.3455 23.5252 38.1623 22.5429C38.979 21.5605 39.4305 20.3257 39.44 19.0482L39.4407 18.9784C38.7044 19.3851 37.84 19.631 36.9379 19.6574C37.7008 19.1593 38.3289 18.4807 38.7667 17.6817C39.2045 16.8827 39.4383 15.9881 39.4476 15.0771C39.4573 14.0458 39.1971 13.1016 38.7216 12.2799C37.3159 13.9774 35.5687 15.3601 33.5937 16.3381C31.6186 17.3161 29.4598 17.8676 27.2577 17.9567C28.0754 14.2025 25.2941 11.1319 21.9162 11.1C20.3219 11.085 18.8807 11.739 17.8591 12.8057C16.6108 12.5597 15.4195 12.0801 14.3592 11.4423C14.7607 12.7266 15.6174 13.8159 16.7618 14.5094C15.6469 14.3793 14.5737 14.0602 13.5813 13.6174C14.3232 14.7305 15.2556 15.7209 16.3294 16.5133Z" fill="#959595"/>
</g>
<defs>
<clipPath id="clip0_5_2">
<rect width="51.0203" height="51.0203" fill="white" transform="matrix(-0.999956 -0.0094306 -0.0094306 0.999956 51.499 0.48114)"/>
</clipPath>
</defs>
</svg>
