<svg width="47" height="47" viewBox="0 0 47 47" fill="none" xmlns="http://www.w3.org/2000/svg">
<g clip-path="url(#clip0_4_396)">
<path d="M23.5 0C10.5217 0 0 10.5213 0 23.5C0 36.4787 10.5217 47 23.5 47C36.4783 47 47 36.4787 47 23.5C47 10.5213 36.4783 0 23.5 0ZM35.4205 26.0416C36.5158 27.1114 37.6745 28.1183 38.6578 29.2987C39.0934 29.8208 39.504 30.3608 39.8166 30.9681C40.2628 31.834 39.8598 32.7836 39.0848 32.8351L34.2703 32.8341C33.0269 32.937 32.0374 32.4355 31.2032 31.5854C30.5373 30.908 29.9194 30.1843 29.278 29.4838C29.0159 29.1963 28.74 28.9256 28.4111 28.7126C27.7548 28.2856 27.1845 28.4164 26.8085 29.102C26.4253 29.7997 26.3378 30.5728 26.3012 31.3494C26.2488 32.4846 25.9065 32.7812 24.7674 32.8346C22.3335 32.9486 20.0242 32.5793 17.8778 31.3522C15.9843 30.2699 14.5188 28.7424 13.2417 27.0129C10.7549 23.6414 8.85042 19.941 7.13919 16.1343C6.75406 15.277 7.03582 14.8183 7.98159 14.8006C9.5529 14.7703 11.1242 14.7741 12.6955 14.7991C13.335 14.8092 13.7581 15.1751 14.0038 15.7785C14.853 17.8677 15.8939 19.8554 17.1984 21.6989C17.546 22.1898 17.9009 22.6792 18.4062 23.0259C18.964 23.4086 19.389 23.2822 19.652 22.6595C19.8203 22.2638 19.8929 21.8407 19.9294 21.4166C20.0545 19.9641 20.0694 18.512 19.853 17.0652C19.7184 16.1598 19.2092 15.5752 18.3067 15.404C17.847 15.317 17.9143 15.1467 18.1379 14.8842C18.5259 14.4303 18.8894 14.1495 19.6159 14.1495L25.0554 14.1486C25.9127 14.3168 26.1051 14.7015 26.2214 15.5651L26.2262 21.6099C26.2161 21.9441 26.394 22.9346 26.9941 23.1533C27.4749 23.312 27.7923 22.9264 28.0798 22.622C29.3843 21.2377 30.3137 19.6039 31.146 17.9129C31.5133 17.1671 31.8302 16.3954 32.1379 15.6223C32.3668 15.0506 32.7226 14.7693 33.3678 14.7789L38.6059 14.7852C38.7602 14.7852 38.917 14.7866 39.0699 14.8131C39.9526 14.964 40.1945 15.3439 39.9214 16.205C39.4915 17.558 38.6564 18.6851 37.8399 19.815C36.9648 21.0247 36.0316 22.1922 35.1651 23.4072C34.3689 24.5179 34.4319 25.0771 35.4205 26.0416Z" fill="#959595"/>
</g>
<defs>
<clipPath id="clip0_4_396">
<rect width="47" height="47" fill="white"/>
</clipPath>
</defs>
</svg>
